<svg id="visual" viewBox="0 0 900 600" width="900" height="600" xmlns="http://www.w3.org/2000/svg" xmlns:xlink="http://www.w3.org/1999/xlink" version="1.1"><g fill="#4b4b4b"><circle r="72" cx="457" cy="154"></circle><circle r="5" cx="742" cy="302"></circle><circle r="25" cx="826" cy="451"></circle><circle r="57" cx="101" cy="316"></circle><circle r="57" cx="863" cy="162"></circle><circle r="51" cx="317" cy="384"></circle><circle r="18" cx="577" cy="536"></circle><circle r="36" cx="343" cy="49"></circle><circle r="57" cx="75" cy="497"></circle><circle r="10" cx="243" cy="513"></circle><circle r="70" cx="865" cy="11"></circle><circle r="63" cx="245" cy="178"></circle><circle r="25" cx="32" cy="176"></circle><circle r="56" cx="761" cy="581"></circle><circle r="60" cx="661" cy="43"></circle><circle r="69" cx="521" cy="12"></circle><circle r="23" cx="92" cy="22"></circle><circle r="40" cx="463" cy="440"></circle><circle r="53" cx="595" cy="206"></circle><circle r="28" cx="412" cy="598"></circle><circle r="52" cx="625" cy="384"></circle><circle r="43" cx="895" cy="309"></circle></g></svg>