<svg id="visual" viewBox="0 0 900 600" width="900" height="600" xmlns="http://www.w3.org/2000/svg" xmlns:xlink="http://www.w3.org/1999/xlink" version="1.1"><path d="M396 600L379 600L379 514L527 514L527 429L445 429L445 343L401 343L401 257L546 257L546 171L470 171L470 86L524 86L524 0L900 0L900 86L900 86L900 171L900 171L900 257L900 257L900 343L900 343L900 429L900 429L900 514L900 514L900 600L900 600Z" fill="#646a7f"></path><path d="M608 600L585 600L585 514L520 514L520 429L622 429L622 343L613 343L613 257L548 257L548 171L604 171L604 86L617 86L617 0L900 0L900 86L900 86L900 171L900 171L900 257L900 257L900 343L900 343L900 429L900 429L900 514L900 514L900 600L900 600Z" fill="#6d7083"></path><path d="M692 600L755 600L755 514L750 514L750 429L741 429L741 343L760 343L760 257L786 257L786 171L753 171L753 86L814 86L814 0L900 0L900 86L900 86L900 171L900 171L900 257L900 257L900 343L900 343L900 429L900 429L900 514L900 514L900 600L900 600Z" fill="#767787"></path></svg>