<svg id="visual" viewBox="0 0 900 600" width="900" height="600" xmlns="http://www.w3.org/2000/svg" xmlns:xlink="http://www.w3.org/1999/xlink" version="1.1"><path d="M637 600L656 600L656 514L601 514L601 429L379 429L379 343L613 343L613 257L493 257L493 171L548 171L548 86L418 86L418 0L900 0L900 86L900 86L900 171L900 171L900 257L900 257L900 343L900 343L900 429L900 429L900 514L900 514L900 600L900 600Z" fill="#646a7f"></path><path d="M715 600L576 600L576 514L722 514L722 429L605 429L605 343L696 343L696 257L680 257L680 171L687 171L687 86L606 86L606 0L900 0L900 86L900 86L900 171L900 171L900 257L900 257L900 343L900 343L900 429L900 429L900 514L900 514L900 600L900 600Z" fill="#6d7083"></path><path d="M674 600L650 600L650 514L754 514L754 429L733 429L733 343L697 343L697 257L831 257L831 171L801 171L801 86L742 86L742 0L900 0L900 86L900 86L900 171L900 171L900 257L900 257L900 343L900 343L900 429L900 429L900 514L900 514L900 600L900 600Z" fill="#767787"></path></svg>