<svg id="visual" viewBox="0 0 900 600" width="900" height="600" xmlns="http://www.w3.org/2000/svg" xmlns:xlink="http://www.w3.org/1999/xlink" version="1.1"><g stroke-width="1" stroke-linejoin="bevel"><path d="M430 288L311 154L285 287Z" fill="#385962" stroke="#385962"></path><path d="M430 288L471 144L311 154Z" fill="#74786b" stroke="#74786b"></path><path d="M311 154L167 303L285 287Z" fill="#888277" stroke="#888277"></path><path d="M285 287L293 427L430 288Z" fill="#74786b" stroke="#74786b"></path><path d="M167 303L293 427L285 287Z" fill="#344c5f" stroke="#344c5f"></path><path d="M293 427L470 431L430 288Z" fill="#74786b" stroke="#74786b"></path><path d="M430 288L596 281L471 144Z" fill="#74786b" stroke="#74786b"></path><path d="M439 0L315 0L311 154Z" fill="#486562" stroke="#486562"></path><path d="M311 154L123 142L167 303Z" fill="#486562" stroke="#486562"></path><path d="M470 431L596 281L430 288Z" fill="#74786b" stroke="#74786b"></path><path d="M471 144L439 0L311 154Z" fill="#385962" stroke="#385962"></path><path d="M595 0L439 0L471 144Z" fill="#888277" stroke="#888277"></path><path d="M169 0L123 142L311 154Z" fill="#697466" stroke="#697466"></path><path d="M596 281L611 151L471 144Z" fill="#3f5f62" stroke="#3f5f62"></path><path d="M315 0L169 0L311 154Z" fill="#486562" stroke="#486562"></path><path d="M470 431L602 427L596 281Z" fill="#7f7d70" stroke="#7f7d70"></path><path d="M766 273L724 132L611 151Z" fill="#697466" stroke="#697466"></path><path d="M0 324L132 459L167 303Z" fill="#74786b" stroke="#74786b"></path><path d="M167 303L132 459L293 427Z" fill="#385962" stroke="#385962"></path><path d="M293 427L308 600L470 431Z" fill="#385962" stroke="#385962"></path><path d="M470 431L470 600L602 427Z" fill="#3f5f62" stroke="#3f5f62"></path><path d="M611 151L595 0L471 144Z" fill="#74786b" stroke="#74786b"></path><path d="M123 142L0 324L167 303Z" fill="#74786b" stroke="#74786b"></path><path d="M0 136L0 324L123 142Z" fill="#345361" stroke="#345361"></path><path d="M0 0L0 136L123 142Z" fill="#486562" stroke="#486562"></path><path d="M132 459L308 600L293 427Z" fill="#888277" stroke="#888277"></path><path d="M766 273L611 151L596 281Z" fill="#5e6f64" stroke="#5e6f64"></path><path d="M611 151L724 132L595 0Z" fill="#3f5f62" stroke="#3f5f62"></path><path d="M308 600L470 600L470 431Z" fill="#344c5f" stroke="#344c5f"></path><path d="M771 432L766 273L602 427Z" fill="#888277" stroke="#888277"></path><path d="M602 427L766 273L596 281Z" fill="#74786b" stroke="#74786b"></path><path d="M169 0L0 0L123 142Z" fill="#3f5f62" stroke="#3f5f62"></path><path d="M0 324L0 471L132 459Z" fill="#345361" stroke="#345361"></path><path d="M132 459L130 600L308 600Z" fill="#385962" stroke="#385962"></path><path d="M0 471L130 600L132 459Z" fill="#344c5f" stroke="#344c5f"></path><path d="M470 600L617 600L602 427Z" fill="#74786b" stroke="#74786b"></path><path d="M732 600L771 432L602 427Z" fill="#385962" stroke="#385962"></path><path d="M900 135L757 0L724 132Z" fill="#697466" stroke="#697466"></path><path d="M724 132L757 0L595 0Z" fill="#486562" stroke="#486562"></path><path d="M0 471L0 600L130 600Z" fill="#536a62" stroke="#536a62"></path><path d="M617 600L732 600L602 427Z" fill="#345361" stroke="#345361"></path><path d="M900 448L900 298L771 432Z" fill="#697466" stroke="#697466"></path><path d="M771 432L900 298L766 273Z" fill="#385962" stroke="#385962"></path><path d="M766 273L900 135L724 132Z" fill="#536a62" stroke="#536a62"></path><path d="M900 298L900 135L766 273Z" fill="#7f7d70" stroke="#7f7d70"></path><path d="M900 600L900 448L771 432Z" fill="#3f5f62" stroke="#3f5f62"></path><path d="M900 135L900 0L757 0Z" fill="#5e6f64" stroke="#5e6f64"></path><path d="M732 600L900 600L771 432Z" fill="#5e6f64" stroke="#5e6f64"></path></g></svg>