<svg id="visual" viewBox="0 0 540 960" width="540" height="960" xmlns="http://www.w3.org/2000/svg" xmlns:xlink="http://www.w3.org/1999/xlink" version="1.1"><path d="M0 49L45 49C90 49 180 49 270 49C360 49 450 49 495 49L540 49L540 0L495 0C450 0 360 0 270 0C180 0 90 0 45 0L0 0Z" fill="#97a4aa"></path><path d="M0 126L45 127.5C90 129 180 132 270 132C360 132 450 129 495 127.5L540 126L540 47L495 47C450 47 360 47 270 47C180 47 90 47 45 47L0 47Z" fill="#a7b3b8"></path><path d="M0 174L45 175.5C90 177 180 180 270 180C360 180 450 177 495 175.5L540 174L540 124L495 125.5C450 127 360 130 270 130C180 130 90 127 45 125.5L0 124Z" fill="#b7c2c7"></path><path d="M0 212L45 213.7C90 215.3 180 218.7 270 218.7C360 218.7 450 215.3 495 213.7L540 212L540 172L495 173.5C450 175 360 178 270 178C180 178 90 175 45 173.5L0 172Z" fill="#c2ccd0"></path><path d="M0 251L45 252.5C90 254 180 257 270 257C360 257 450 254 495 252.5L540 251L540 210L495 211.7C450 213.3 360 216.7 270 216.7C180 216.7 90 213.3 45 211.7L0 210Z" fill="#cbd4d7"></path><path d="M0 433L45 436.2C90 439.3 180 445.7 270 445.7C360 445.7 450 439.3 495 436.2L540 433L540 249L495 250.5C450 252 360 255 270 255C180 255 90 252 45 250.5L0 249Z" fill="#cfd7da"></path><path d="M0 491L45 494.2C90 497.3 180 503.7 270 503.7C360 503.7 450 497.3 495 494.2L540 491L540 431L495 434.2C450 437.3 360 443.7 270 443.7C180 443.7 90 437.3 45 434.2L0 431Z" fill="#cfd7da"></path><path d="M0 548L45 551.2C90 554.3 180 560.7 270 560.7C360 560.7 450 554.3 495 551.2L540 548L540 489L495 492.2C450 495.3 360 501.7 270 501.7C180 501.7 90 495.3 45 492.2L0 489Z" fill="#cbd4d7"></path><path d="M0 750L45 750C90 750 180 750 270 746.8C360 743.7 450 737.3 495 734.2L540 731L540 546L495 549.2C450 552.3 360 558.7 270 558.7C180 558.7 90 552.3 45 549.2L0 546Z" fill="#c2ccd0"></path><path d="M0 855L45 855C90 855 180 855 270 853.5C360 852 450 849 495 847.5L540 846L540 729L495 732.2C450 735.3 360 741.7 270 744.8C180 748 90 748 45 748L0 748Z" fill="#b7c2c7"></path><path d="M0 894L45 894C90 894 180 894 270 892.3C360 890.7 450 887.3 495 885.7L540 884L540 844L495 845.5C450 847 360 850 270 851.5C180 853 90 853 45 853L0 853Z" fill="#a7b3b8"></path><path d="M0 961L45 961C90 961 180 961 270 961C360 961 450 961 495 961L540 961L540 882L495 883.7C450 885.3 360 888.7 270 890.3C180 892 90 892 45 892L0 892Z" fill="#97a4aa"></path></svg>