<svg id="visual" viewBox="0 0 900 600" width="900" height="600" xmlns="http://www.w3.org/2000/svg" xmlns:xlink="http://www.w3.org/1999/xlink" version="1.1"><path d="M0 369L4.8 359.7C9.7 350.3 19.3 331.7 29 364.8C38.7 398 48.3 483 58 506.7C67.7 530.3 77.3 492.7 87 452.7C96.7 412.7 106.3 370.3 116 392.2C125.7 414 135.3 500 145 543.2C154.7 586.3 164.3 586.7 174 541.5C183.7 496.3 193.3 405.7 203 361.3C212.7 317 222.3 319 232 352.5C241.7 386 251.3 451 261 489.2C270.7 527.3 280.3 538.7 290 506.3C299.7 474 309.3 398 319 389C328.7 380 338.3 438 348 438.7C357.7 439.3 367.3 382.7 377 377.7C386.7 372.7 396.3 419.3 406 439.3C415.7 459.3 425.3 452.7 435.2 450.7C445 448.7 455 451.3 464.8 445.5C474.7 439.7 484.3 425.3 494 419.7C503.7 414 513.3 417 523 426.3C532.7 435.7 542.3 451.3 552 441.7C561.7 432 571.3 397 581 418.5C590.7 440 600.3 518 610 510.7C619.7 503.3 629.3 410.7 639 397C648.7 383.3 658.3 448.7 668 456C677.7 463.3 687.3 412.7 697 405.7C706.7 398.7 716.3 435.3 726 458C735.7 480.7 745.3 489.3 755 478.7C764.7 468 774.3 438 784 451.5C793.7 465 803.3 522 813 535.5C822.7 549 832.3 519 842 489.7C851.7 460.3 861.3 431.7 871 442.3C880.7 453 890.3 503 895.2 528L900 553L900 601L895.2 601C890.3 601 880.7 601 871 601C861.3 601 851.7 601 842 601C832.3 601 822.7 601 813 601C803.3 601 793.7 601 784 601C774.3 601 764.7 601 755 601C745.3 601 735.7 601 726 601C716.3 601 706.7 601 697 601C687.3 601 677.7 601 668 601C658.3 601 648.7 601 639 601C629.3 601 619.7 601 610 601C600.3 601 590.7 601 581 601C571.3 601 561.7 601 552 601C542.3 601 532.7 601 523 601C513.3 601 503.7 601 494 601C484.3 601 474.7 601 464.8 601C455 601 445 601 435.2 601C425.3 601 415.7 601 406 601C396.3 601 386.7 601 377 601C367.3 601 357.7 601 348 601C338.3 601 328.7 601 319 601C309.3 601 299.7 601 290 601C280.3 601 270.7 601 261 601C251.3 601 241.7 601 232 601C222.3 601 212.7 601 203 601C193.3 601 183.7 601 174 601C164.3 601 154.7 601 145 601C135.3 601 125.7 601 116 601C106.3 601 96.7 601 87 601C77.3 601 67.7 601 58 601C48.3 601 38.7 601 29 601C19.3 601 9.7 601 4.8 601L0 601Z" fill="#5a5a5a" stroke-linecap="round" stroke-linejoin="miter"></path></svg>